#tb 0: 1/25
0,          0,          0,        1,   518400, 0xae20b4fa
0,          2,          2,        1,   518400, 0x2b4ccdf9
0,          3,          3,        1,   518400, 0x2b4ccdf9
0,          4,          4,        1,   518400, 0x2b4ccdf9
0,          5,          5,        1,   518400, 0x2b4ccdf9
0,          6,          6,        1,   518400, 0x2b4ccdf9
0,          7,          7,        1,   518400, 0x70d9a891
0,          8,          8,        1,   518400, 0x70d9a891
0,          9,          9,        1,   518400, 0x70d9a891
0,         10,         10,        1,   518400, 0xa461ee86
0,         11,         11,        1,   518400, 0x77cbc6e8
0,         12,         12,        1,   518400, 0x77cbc6e8
0,         13,         13,        1,   518400, 0x77cbc6e8
0,         14,         14,        1,   518400, 0x514afd2a
0,         15,         15,        1,   518400, 0x514afd2a
0,         16,         16,        1,   518400, 0x8c0bcaca
0,         17,         17,        1,   518400, 0x680727c3
0,         18,         18,        1,   518400, 0x680727c3
0,         19,         19,        1,   518400, 0x06012382
0,         20,         20,        1,   518400, 0x06012382
0,         21,         21,        1,   518400, 0xcbe29fe3
0,         22,         22,        1,   518400, 0xcbe29fe3
0,         23,         23,        1,   518400, 0x13e9bd17
0,         24,         24,        1,   518400, 0xc86492fd
0,         25,         25,        1,   518400, 0x38f9ad47
0,         26,         26,        1,   518400, 0x38f9ad47
0,         27,         27,        1,   518400, 0x38f9ad47
0,         28,         28,        1,   518400, 0x5c00a10a
0,         29,         29,        1,   518400, 0x5c00a10a
0,         30,         30,        1,   518400, 0x5c00a10a
